<svg xmlns="http://www.w3.org/2000/svg" xmlns:v="https://svgstorm.com"
viewBox = "0 0 612 612"
width="612"
height="612">
<g fill="None" fill-opacity="0.0" stroke="black" stroke-width="1"><path d="
M 0.00 612.00 
L 612.00 612.00
L 612.00 0.00
L 0.00 0.00
L 0.00 612.00
M 476.00 210.00 
C 500.28 212.83 525.93 210.41 550.00 214.00
C 544.56 263.83 506.88 321.01 553.00 361.00
C 520.97 371.24 488.98 381.52 457.00 392.00
C 467.40 401.34 479.60 408.88 491.00 417.00
C 477.94 431.61 462.09 443.56 449.00 458.00
C 474.19 478.47 480.12 497.93 463.23 523.23 C 446.34 548.53 427.69 556.67 400.00 569.00
C 376.31 551.99 355.71 503.65 325.78 513.78 C 295.84 523.91 297.33 517.92 270.98 528.98 C 244.62 540.03 246.47 519.91 242.00 498.00
C 232.63 496.31 224.66 489.85 215.00 489.00
C 205.09 503.65 210.54 533.60 197.89 545.89 C 185.25 558.19 156.33 554.71 142.00 565.00
C 117.00 519.84 89.37 475.71 66.00 430.00
C 80.00 430.00 94.00 430.00 108.00 430.00
C 107.79 415.12 109.66 400.76 110.00 386.00
C 92.68 377.90 76.19 367.65 59.00 359.00
C 76.08 332.95 100.78 303.76 118.92 278.92 C 137.06 254.08 109.80 256.74 103.08 235.92 C 96.35 215.11 88.34 214.75 75.23 193.77 C 62.12 172.79 81.25 174.01 108.00 176.00
C 110.11 148.36 108.49 109.79 136.01 117.99 C 163.52 126.19 186.27 141.07 208.23 126.23 C 230.19 111.39 243.59 103.95 264.23 86.23 C 284.87 68.51 300.91 78.97 319.00 100.00
C 330.16 81.85 340.70 62.35 350.00 43.00
C 372.16 56.03 384.60 74.30 406.75 89.25 C 428.90 104.21 437.84 122.41 462.75 137.25 C 487.66 152.09 486.21 182.92 476.00 210.00 Z"/>
</g>
<g fill="None" fill-opacity="0.0" stroke="black" stroke-width="1"><path d="
M 476.00 210.00 
C 486.21 182.92 487.66 152.09 462.75 137.25 C 437.84 122.41 428.90 104.21 406.75 89.25 C 384.60 74.30 372.16 56.03 350.00 43.00
C 340.70 62.35 330.16 81.85 319.00 100.00
C 300.91 78.97 284.87 68.51 264.23 86.23 C 243.59 103.95 230.19 111.39 208.23 126.23 C 186.27 141.07 163.52 126.19 136.01 117.99 C 108.49 109.79 110.11 148.36 108.00 176.00
C 81.25 174.01 62.12 172.79 75.23 193.77 C 88.34 214.75 96.35 215.11 103.08 235.92 C 109.80 256.74 137.06 254.08 118.92 278.92 C 100.78 303.76 76.08 332.95 59.00 359.00
C 76.19 367.65 92.68 377.90 110.00 386.00
C 109.66 400.76 107.79 415.12 108.00 430.00
C 94.00 430.00 80.00 430.00 66.00 430.00
C 89.37 475.71 117.00 519.84 142.00 565.00
C 156.33 554.71 185.25 558.19 197.89 545.89 C 210.54 533.60 205.09 503.65 215.00 489.00
C 224.66 489.85 232.63 496.31 242.00 498.00
C 246.47 519.91 244.62 540.03 270.98 528.98 C 297.33 517.92 295.84 523.91 325.78 513.78 C 355.71 503.65 376.31 551.99 400.00 569.00
C 427.69 556.67 446.34 548.53 463.23 523.23 C 480.12 497.93 474.19 478.47 449.00 458.00
C 462.09 443.56 477.94 431.61 491.00 417.00
C 479.60 408.88 467.40 401.34 457.00 392.00
C 488.98 381.52 520.97 371.24 553.00 361.00
C 506.88 321.01 544.56 263.83 550.00 214.00
C 525.93 210.41 500.28 212.83 476.00 210.00
M 479.00 176.00 
C 483.90 189.49 458.58 225.33 476.00 230.00 C 493.42 234.67 524.28 228.53 543.00 232.00
C 536.28 262.97 529.87 294.03 523.00 325.00
C 532.01 335.82 540.53 347.59 549.00 359.00
C 510.75 371.64 472.39 383.77 434.00 396.00
C 443.58 409.04 460.13 419.05 473.00 430.00
C 461.13 441.91 448.61 454.64 436.00 465.00
C 442.81 486.10 470.75 501.11 460.23 523.23 C 449.71 545.35 426.86 551.67 406.00 563.00
C 406.67 558.07 405.01 553.78 405.00 549.00
C 442.20 546.20 439.62 493.49 431.01 465.99 C 422.39 438.50 408.01 409.40 384.00 391.00
C 397.48 369.40 416.83 349.86 416.00 322.00 C 415.16 294.14 446.88 286.20 455.78 259.78 C 464.67 233.35 457.25 203.30 434.92 187.08 C 412.58 170.87 379.50 169.83 359.00 189.00
C 351.71 185.24 344.78 180.22 337.00 177.00
C 340.96 168.14 353.21 163.31 356.00 154.00
C 341.51 158.31 326.91 162.83 311.00 162.00
C 319.11 152.71 327.11 142.85 330.00 131.00
C 311.29 146.91 296.20 149.40 273.98 160.98 C 251.75 172.55 236.64 159.96 220.00 143.00
C 235.27 126.57 250.48 124.88 266.25 107.25 C 282.01 89.61 298.84 103.26 315.00 116.00
C 322.83 98.23 334.16 81.78 342.00 64.00
C 388.48 99.62 432.67 140.18 479.00 176.00
M 155.00 147.00 
C 134.54 162.51 113.71 203.17 133.93 228.07 C 154.15 252.97 133.18 285.81 138.00 317.00 C 142.82 348.19 154.09 371.72 176.00 394.00
C 155.19 415.08 139.96 442.32 132.07 470.07 C 124.19 497.83 121.67 549.93 160.00 551.00
C 160.88 559.54 148.82 558.86 143.00 561.00
C 118.82 518.20 93.97 475.90 70.00 433.00
C 83.33 433.00 96.67 433.00 110.00 433.00
C 108.67 417.27 120.27 388.53 104.77 380.23 C 89.27 371.93 78.28 365.93 63.00 358.00
C 76.70 340.09 87.07 322.75 102.25 305.25 C 117.44 287.76 134.44 269.36 115.70 250.30 C 96.95 231.25 95.82 213.17 79.00 194.00
C 120.89 208.59 109.02 160.53 116.00 135.00
C 128.86 139.16 142.85 141.65 155.00 147.00
M 244.00 173.00 
C 271.33 165.67 299.08 156.24 323.00 140.00
C 320.24 149.81 309.61 155.96 306.00 165.00
C 320.67 165.97 334.30 162.91 348.00 160.00
C 345.22 160.29 320.11 191.38 323.26 188.75 C 326.41 186.12 351.89 173.38 356.00 193.00
C 383.04 169.17 430.58 174.21 448.77 206.23 C 466.96 238.25 452.56 282.03 418.00 296.00
C 413.68 282.00 412.23 262.91 403.00 253.00
C 452.28 353.06 345.14 454.96 246.33 431.67 C 147.51 408.39 103.11 282.09 179.00 210.00
C 166.98 218.86 158.02 232.54 150.00 245.00
C 80.08 182.80 205.28 86.20 244.00 173.00
M 423.00 538.00 
C 422.35 532.17 424.16 523.40 422.00 517.00
C 417.46 522.87 421.57 535.03 419.00 543.00
C 396.75 554.72 404.10 520.79 400.00 505.00 C 395.90 489.21 394.02 466.94 389.67 450.33 C 385.32 433.72 381.93 414.99 375.00 399.00
C 377.37 397.46 380.53 396.14 381.00 393.00
C 420.87 425.50 448.56 489.65 423.00 538.00
M 185.00 403.00 
C 169.42 440.91 164.04 484.59 162.00 526.00 C 159.96 567.41 138.91 541.92 144.00 519.00
C 136.64 521.62 143.11 534.27 140.00 540.00
C 122.99 517.82 130.98 476.37 140.31 454.31 C 149.63 432.25 163.35 398.78 185.00 403.00
M 373.00 402.00 
C 390.35 454.19 399.34 509.08 403.00 565.00
C 381.84 548.66 362.62 525.66 344.00 506.00
C 313.12 513.51 282.87 523.37 252.00 531.00
C 251.35 505.72 239.73 486.98 213.00 485.00
C 204.57 515.36 202.55 553.80 163.00 555.00
C 166.37 504.21 167.95 452.54 187.00 406.00
C 239.37 448.85 322.74 448.97 373.00 402.00 Z"/>
</g>
<g fill="None" fill-opacity="0.0" stroke="black" stroke-width="1"><path d="
M 479.00 176.00 
C 432.67 140.18 388.48 99.62 342.00 64.00
C 334.16 81.78 322.83 98.23 315.00 116.00
C 298.84 103.26 282.01 89.61 266.25 107.25 C 250.48 124.88 235.27 126.57 220.00 143.00
C 236.64 159.96 251.75 172.55 273.98 160.98 C 296.20 149.40 311.29 146.91 330.00 131.00
C 327.11 142.85 319.11 152.71 311.00 162.00
C 326.91 162.83 341.51 158.31 356.00 154.00
C 353.21 163.31 340.96 168.14 337.00 177.00
C 344.78 180.22 351.71 185.24 359.00 189.00
C 379.50 169.83 412.58 170.87 434.92 187.08 C 457.25 203.30 464.67 233.35 455.78 259.78 C 446.88 286.20 415.16 294.14 416.00 322.00 C 416.83 349.86 397.48 369.40 384.00 391.00
C 408.01 409.40 422.39 438.50 431.01 465.99 C 439.62 493.49 442.20 546.20 405.00 549.00
C 405.01 553.78 406.67 558.07 406.00 563.00
C 426.86 551.67 449.71 545.35 460.23 523.23 C 470.75 501.11 442.81 486.10 436.00 465.00
C 448.61 454.64 461.13 441.91 473.00 430.00
C 460.13 419.05 443.58 409.04 434.00 396.00
C 472.39 383.77 510.75 371.64 549.00 359.00
C 540.53 347.59 532.01 335.82 523.00 325.00
C 529.87 294.03 536.28 262.97 543.00 232.00
C 524.28 228.53 493.42 234.67 476.00 230.00 C 458.58 225.33 483.90 189.49 479.00 176.00 Z"/>
</g>
<g fill="None" fill-opacity="0.0" stroke="black" stroke-width="1"><path d="
M 155.00 147.00 
C 142.85 141.65 128.86 139.16 116.00 135.00
C 109.02 160.53 120.89 208.59 79.00 194.00
C 95.82 213.17 96.95 231.25 115.70 250.30 C 134.44 269.36 117.44 287.76 102.25 305.25 C 87.07 322.75 76.70 340.09 63.00 358.00
C 78.28 365.93 89.27 371.93 104.77 380.23 C 120.27 388.53 108.67 417.27 110.00 433.00
C 96.67 433.00 83.33 433.00 70.00 433.00
C 93.97 475.90 118.82 518.20 143.00 561.00
C 148.82 558.86 160.88 559.54 160.00 551.00
C 121.67 549.93 124.19 497.83 132.07 470.07 C 139.96 442.32 155.19 415.08 176.00 394.00
C 154.09 371.72 142.82 348.19 138.00 317.00 C 133.18 285.81 154.15 252.97 133.93 228.07 C 113.71 203.17 134.54 162.51 155.00 147.00 Z"/>
</g>
<g fill="None" fill-opacity="0.0" stroke="black" stroke-width="1"><path d="
M 244.00 173.00 
C 205.28 86.20 80.08 182.80 150.00 245.00
C 158.02 232.54 166.98 218.86 179.00 210.00
C 103.11 282.09 147.51 408.39 246.33 431.67 C 345.14 454.96 452.28 353.06 403.00 253.00
C 412.23 262.91 413.68 282.00 418.00 296.00
C 452.56 282.03 466.96 238.25 448.77 206.23 C 430.58 174.21 383.04 169.17 356.00 193.00
C 351.89 173.38 326.41 186.12 323.26 188.75 C 320.11 191.38 345.22 160.29 348.00 160.00
C 334.30 162.91 320.67 165.97 306.00 165.00
C 309.61 155.96 320.24 149.81 323.00 140.00
C 299.08 156.24 271.33 165.67 244.00 173.00
M 191.00 166.00 
C 169.98 138.44 144.27 171.64 155.00 195.00
C 133.77 169.38 178.11 132.65 191.00 166.00
M 432.00 248.00 
C 449.04 229.23 439.06 191.17 409.00 206.00
C 438.13 183.41 457.65 231.40 432.00 248.00
M 252.00 282.00 
C 245.26 296.40 220.96 304.63 208.00 297.00
C 224.06 299.23 240.06 292.67 252.00 282.00
M 370.00 294.00 
C 358.68 301.43 337.93 294.80 328.00 285.00
C 340.18 289.27 354.57 296.86 370.00 294.00
M 292.00 338.00 
C 291.68 344.62 292.46 352.07 292.00 358.00
C 302.84 358.98 317.07 358.01 326.00 366.00
C 307.56 359.88 284.32 359.56 266.00 370.00
C 278.02 359.65 297.25 360.80 289.00 338.00
C 267.14 327.53 261.55 310.93 292.00 309.00 C 322.45 307.07 314.70 329.63 292.00 338.00 Z"/>
</g>
<g fill="None" fill-opacity="0.0" stroke="black" stroke-width="1"><path d="
M 191.00 166.00 
C 178.11 132.65 133.77 169.38 155.00 195.00
C 144.27 171.64 169.98 138.44 191.00 166.00 Z"/>
</g>
<g fill="None" fill-opacity="0.0" stroke="black" stroke-width="1"><path d="
M 432.00 248.00 
C 457.65 231.40 438.13 183.41 409.00 206.00
C 439.06 191.17 449.04 229.23 432.00 248.00 Z"/>
</g>
<g fill="None" fill-opacity="0.0" stroke="black" stroke-width="1"><path d="
M 252.00 282.00 
C 240.06 292.67 224.06 299.23 208.00 297.00
C 220.96 304.63 245.26 296.40 252.00 282.00 Z"/>
</g>
<g fill="None" fill-opacity="0.0" stroke="black" stroke-width="1"><path d="
M 370.00 294.00 
C 354.57 296.86 340.18 289.27 328.00 285.00
C 337.93 294.80 358.68 301.43 370.00 294.00 Z"/>
</g>
<g fill="None" fill-opacity="0.0" stroke="black" stroke-width="1"><path d="
M 292.00 338.00 
C 314.70 329.63 322.45 307.07 292.00 309.00 C 261.55 310.93 267.14 327.53 289.00 338.00
C 297.25 360.80 278.02 359.65 266.00 370.00
C 284.32 359.56 307.56 359.88 326.00 366.00
C 317.07 358.01 302.84 358.98 292.00 358.00
C 292.46 352.07 291.68 344.62 292.00 338.00
M 290.00 313.00 
C 297.62 314.32 288.57 324.50 280.99 321.99 C 273.41 319.48 282.88 311.76 290.00 313.00 Z"/>
</g>
<g fill="None" fill-opacity="0.0" stroke="black" stroke-width="1"><path d="
M 290.00 313.00 
C 282.88 311.76 273.41 319.48 280.99 321.99 C 288.57 324.50 297.62 314.32 290.00 313.00 Z"/>
</g>
<g fill="None" fill-opacity="0.0" stroke="black" stroke-width="1"><path d="
M 423.00 538.00 
C 448.56 489.65 420.87 425.50 381.00 393.00
C 380.53 396.14 377.37 397.46 375.00 399.00
C 381.93 414.99 385.32 433.72 389.67 450.33 C 394.02 466.94 395.90 489.21 400.00 505.00 C 404.10 520.79 396.75 554.72 419.00 543.00
C 421.57 535.03 417.46 522.87 422.00 517.00
C 424.16 523.40 422.35 532.17 423.00 538.00 Z"/>
</g>
<g fill="None" fill-opacity="0.0" stroke="black" stroke-width="1"><path d="
M 185.00 403.00 
C 163.35 398.78 149.63 432.25 140.31 454.31 C 130.98 476.37 122.99 517.82 140.00 540.00
C 143.11 534.27 136.64 521.62 144.00 519.00
C 138.91 541.92 159.96 567.41 162.00 526.00 C 164.04 484.59 169.42 440.91 185.00 403.00 Z"/>
</g>
<g fill="None" fill-opacity="0.0" stroke="black" stroke-width="1"><path d="
M 373.00 402.00 
C 322.74 448.97 239.37 448.85 187.00 406.00
C 167.95 452.54 166.37 504.21 163.00 555.00
C 202.55 553.80 204.57 515.36 213.00 485.00
C 239.73 486.98 251.35 505.72 252.00 531.00
C 282.87 523.37 313.12 513.51 344.00 506.00
C 362.62 525.66 381.84 548.66 403.00 565.00
C 399.34 509.08 390.35 454.19 373.00 402.00
M 342.00 496.00 
C 337.39 494.07 333.51 491.06 329.00 489.00
C 331.61 484.54 337.60 482.01 338.00 477.00
C 333.16 475.90 328.63 473.81 324.00 472.00
C 328.38 457.95 347.22 438.77 359.77 455.23 C 372.32 471.70 351.03 485.41 342.00 496.00
M 311.00 477.00 
C 315.99 477.67 320.86 478.82 326.00 479.00
C 325.78 484.45 319.70 487.63 319.00 493.00
C 323.77 493.98 328.18 496.21 333.00 497.00
C 320.80 507.86 297.56 498.91 287.08 478.92 C 276.61 458.92 329.49 443.66 311.00 477.00 Z"/>
</g>
<g fill="None" fill-opacity="0.0" stroke="black" stroke-width="1"><path d="
M 342.00 496.00 
C 351.03 485.41 372.32 471.70 359.77 455.23 C 347.22 438.77 328.38 457.95 324.00 472.00
C 328.63 473.81 333.16 475.90 338.00 477.00
C 337.60 482.01 331.61 484.54 329.00 489.00
C 333.51 491.06 337.39 494.07 342.00 496.00 Z"/>
</g>
<g fill="None" fill-opacity="0.0" stroke="black" stroke-width="1"><path d="
M 311.00 477.00 
C 329.49 443.66 276.61 458.92 287.08 478.92 C 297.56 498.91 320.80 507.86 333.00 497.00
C 328.18 496.21 323.77 493.98 319.00 493.00
C 319.70 487.63 325.78 484.45 326.00 479.00
C 320.86 478.82 315.99 477.67 311.00 477.00 Z"/>
</g>
</svg>